<?xml version="1.0" encoding="utf-8"?>
<!-- Generator: Adobe Illustrator 25.2.0, SVG Export Plug-In . SVG Version: 6.00 Build 0)  -->
<svg version="1.1" id="Layer_1" xmlns="http://www.w3.org/2000/svg" xmlns:xlink="http://www.w3.org/1999/xlink" x="0px" y="0px"
	 viewBox="0 0 37 37" style="enable-background:new 0 0 37 37;" xml:space="preserve">
<style type="text/css">
	.st0{fill:#EE0000;}
	.st1{fill:#FFFFFF;}
</style>
<g>
	<path d="M27.5,0.5h-18c-4.97,0-9,4.03-9,9v18c0,4.97,4.03,9,9,9h18c4.97,0,9-4.03,9-9v-18C36.5,4.53,32.47,0.5,27.5,0.5L27.5,0.5z"
		/>
	<path class="st1" d="M25.51,22.17H12.64c-2.98,0-5.41-2.42-5.41-5.41c0-3.15,2.67-5.7,5.92-5.38c1.18-2.27,3.52-3.7,6.1-3.7
		c3.75,0,6.81,3.02,6.88,6.76c1.71,0.44,2.94,1.98,2.94,3.79c0,1.96-1.45,3.6-3.33,3.89C25.68,22.15,25.6,22.17,25.51,22.17z
		 M12.64,12.61c-2.29,0-4.16,1.86-4.16,4.15s1.86,4.16,4.16,4.16h12.5c1.48,0,2.68-1.2,2.68-2.68c0-1.37-1.03-2.51-2.4-2.65
		c-0.33-0.04-0.58-0.32-0.56-0.66l0.01-0.12c0.01-0.08,0.01-0.17,0.01-0.25c0-3.1-2.52-5.63-5.63-5.63c-2.24,0-4.27,1.33-5.16,3.39
		c-0.12,0.27-0.4,0.42-0.69,0.37C13.15,12.63,12.89,12.61,12.64,12.61z"/>
	<path class="st0" d="M25.5,23.87c-1.23,0-2.26,0.85-2.54,2h-1.92c-0.23-0.94-0.97-1.68-1.92-1.92v-7.95l0.93,0.93
		c0.12,0.12,0.28,0.18,0.44,0.18s0.32-0.06,0.44-0.18c0.24-0.24,0.24-0.64,0-0.88l-2-2c-0.24-0.24-0.64-0.24-0.88,0l-2,2
		c-0.24,0.24-0.24,0.64,0,0.88c0.24,0.24,0.64,0.24,0.88,0l0.93-0.93v7.95c-0.94,0.23-1.68,0.97-1.92,1.92h-1.92
		c-0.28-1.15-1.31-2-2.54-2c-1.45,0-2.62,1.18-2.62,2.62s1.18,2.62,2.62,2.62c1.23,0,2.26-0.85,2.54-2h1.92c0.28,1.15,1.31,2,2.54,2
		s2.26-0.85,2.54-2h1.92c0.28,1.15,1.31,2,2.54,2c1.45,0,2.62-1.18,2.62-2.62S26.95,23.87,25.5,23.87z M11.5,27.87
		c-0.76,0-1.38-0.62-1.38-1.38s0.62-1.38,1.38-1.38s1.38,0.62,1.38,1.38S12.26,27.87,11.5,27.87z M18.5,27.87
		c-0.76,0-1.38-0.62-1.38-1.38s0.62-1.38,1.38-1.38s1.38,0.62,1.38,1.38S19.26,27.87,18.5,27.87z M25.5,27.87
		c-0.76,0-1.38-0.62-1.38-1.38s0.62-1.38,1.38-1.38s1.38,0.62,1.38,1.38S26.26,27.87,25.5,27.87z"/>
</g>
</svg>
